<?xml version="1.0" standalone="no"?>
<!DOCTYPE svg PUBLIC "-//W3C//DTD SVG 20010904//EN"
 "http://www.w3.org/TR/2001/REC-SVG-20010904/DTD/svg10.dtd">
<svg version="1.0" xmlns="http://www.w3.org/2000/svg" viewBox="0 0 109 81.77" preserveAspectRatio="xMidYMid meet">
<g transform="translate(0.000000,745.000000) scale(0.100000,-0.100000)"
fill="#264d3e" stroke="none">
<path d="M4935 7443 c-11 -2 -56 -13 -100 -25 -57 -14 -95 -18 -132 -14 -38 4
-60 2 -76 -8 -12 -7 -56 -22 -97 -31 -41 -10 -129 -43 -196 -75 -98 -46 -133
-69 -192 -124 -68 -65 -74 -68 -130 -73 l-59 -6 -36 -71 -35 -71 -7 -175 c-3
-96 -11 -194 -17 -218 -15 -58 -62 -107 -118 -121 -219 -56 -399 -131 -549
-231 -64 -42 -165 -99 -226 -126 -60 -27 -130 -66 -156 -86 -69 -54 -210 -257
-243 -348 -15 -41 -36 -88 -46 -105 -10 -16 -79 -74 -152 -128 -108 -79 -149
-116 -212 -192 -42 -52 -85 -115 -96 -139 -22 -52 -103 -140 -142 -155 -15 -6
-69 -17 -119 -26 -90 -16 -146 -37 -200 -78 -33 -24 -57 -19 -121 23 -96 64
-329 140 -423 139 -56 0 -130 -31 -129 -52 1 -12 -9 -18 -35 -22 -20 -3 -50
-10 -67 -15 -40 -13 -71 -13 -110 2 -25 9 -34 19 -38 43 -7 37 -24 54 -86 85
-24 13 -56 32 -71 42 -25 19 -29 19 -60 4 -34 -16 -131 -39 -159 -38 -58 3
-183 23 -220 37 -42 15 -46 15 -57 -2 -7 -9 -13 -28 -14 -42 -4 -104 27 -168
129 -268 75 -74 82 -85 133 -203 48 -113 60 -131 119 -190 37 -36 79 -82 94
-103 16 -20 34 -37 41 -37 7 0 24 -12 38 -26 20 -20 27 -39 32 -92 11 -104 33
-144 101 -184 96 -56 123 -117 88 -192 -19 -38 -14 -50 51 -131 17 -22 56
-109 95 -213 73 -196 83 -209 168 -219 67 -8 85 -24 76 -69 -6 -32 -4 -34 20
-34 18 0 40 -13 66 -40 22 -22 45 -40 52 -40 7 0 36 -11 63 -24 39 -18 56 -34
80 -75 27 -46 32 -51 65 -51 29 0 41 -6 58 -30 13 -18 32 -30 45 -30 12 0 41
-11 64 -24 50 -29 163 -56 230 -56 41 0 51 -4 73 -30 20 -25 35 -32 78 -37
l53 -6 47 -91 46 -91 -2 -129 -2 -128 27 7 c34 9 270 9 327 0 23 -4 55 -11 73
-16 l32 -10 -1 -92 c-1 -51 2 -113 6 -138 6 -33 4 -62 -8 -104 -10 -31 -19
-102 -21 -158 -5 -121 6 -151 75 -201 86 -62 186 -214 210 -320 14 -62 56
-125 89 -132 14 -3 42 -10 61 -15 20 -5 89 -13 155 -18 84 -6 144 -17 199 -35
68 -23 85 -25 131 -17 67 13 80 9 200 -51 83 -41 117 -52 199 -64 64 -10 109
-22 127 -35 l28 -19 -20 -57 c-29 -84 -25 -116 16 -162 50 -55 96 -75 155 -67
l48 6 61 -69 61 -69 48 13 c109 30 232 50 307 49 102 -2 203 -34 362 -115 108
-55 122 -60 163 -55 39 5 53 2 93 -24 54 -34 78 -36 157 -15 30 8 111 17 180
20 69 3 169 10 222 17 90 10 106 9 197 -11 57 -13 123 -22 153 -20 41 2 61 -2
88 -19 19 -12 42 -22 50 -22 8 0 29 -9 45 -20 17 -11 37 -20 46 -20 25 0 249
211 508 481 550 571 661 680 697 686 19 3 34 9 34 13 0 4 -20 50 -45 102 -25
53 -45 103 -45 112 0 9 25 43 55 76 68 74 91 141 81 239 -19 206 -19 209 -3
235 19 28 71 46 133 46 l41 0 107 161 106 161 0 73 c0 73 0 73 29 80 26 5 30
12 33 43 3 33 6 37 41 45 49 12 62 34 81 138 25 134 23 143 -26 171 -41 22
-42 25 -39 67 l3 44 -44 -8 c-93 -17 -93 -17 -90 44 2 30 1 74 -3 98 -5 37
-12 46 -41 60 -33 16 -34 19 -34 72 0 52 3 58 34 83 30 24 35 35 45 103 14 95
13 150 -3 195 -13 35 -13 35 -75 36 -74 1 -85 11 -75 69 4 22 7 59 6 82 -3 56
22 72 125 84 66 7 82 13 101 34 30 35 28 74 -9 146 -21 42 -29 72 -27 97 3 37
4 37 68 52 56 14 65 19 68 40 2 14 10 44 19 67 15 40 14 42 -10 75 -21 26 -26
44 -24 83 1 33 -8 75 -26 122 -29 78 -34 149 -15 203 9 26 9 35 0 38 -27 9 -5
91 32 121 10 9 16 30 16 60 0 26 7 68 16 94 18 54 10 78 -36 102 -41 21 -39
51 7 141 l37 72 -22 45 c-13 27 -22 63 -22 91 0 49 -29 116 -109 251 -22 38
-41 75 -41 82 0 6 15 16 34 23 31 10 36 18 65 96 46 128 52 120 -91 126 -68 3
-130 9 -139 12 -11 5 -19 25 -23 55 l-6 47 -133 62 c-172 79 -250 100 -422
112 -77 6 -173 13 -213 16 l-73 6 -16 39 c-18 46 -111 135 -168 160 -22 10
-85 27 -140 39 -193 41 -223 54 -290 127 -54 58 -67 66 -120 79 -110 26 -208
14 -244 -29 -19 -23 -38 -21 -73 8 l-30 25 -264 0 -264 0 -1 170 c-1 94 -3
175 -4 180 -1 6 -3 20 -4 31 -1 20 -5 21 -43 14 -24 -4 -81 -6 -128 -5 -47 1
-143 3 -215 5 -71 1 -150 7 -175 13 -46 12 -61 13 -95 5z m-977 -1663 c203
-49 357 -125 523 -260 54 -43 106 -84 116 -91 10 -8 31 -32 48 -54 16 -22 71
-88 121 -146 145 -168 229 -306 310 -507 35 -86 64 -128 86 -119 9 3 60 92
113 197 145 285 251 438 415 599 310 305 701 452 1055 398 182 -28 338 -89
460 -179 104 -77 231 -205 293 -296 165 -241 229 -453 239 -792 4 -116 1 -223
-6 -285 -59 -500 -292 -1054 -641 -1519 -176 -235 -214 -280 -399 -469 l-195
-198 -435 -317 c-240 -174 -483 -345 -541 -380 -157 -94 -326 -176 -363 -176
-73 0 -559 278 -840 479 -314 226 -410 306 -631 529 -341 344 -504 549 -682
858 -186 321 -315 640 -394 971 -46 194 -52 631 -11 797 91 363 263 636 506
800 90 61 241 131 335 155 149 39 371 41 518 5z"/>
<path d="M4482 3913 c-32 -4 -33 -5 -17 -23 13 -15 18 -48 22 -172 5 -141 4
-158 -15 -201 l-21 -47 94 0 c226 0 305 60 305 230 0 83 -22 136 -71 173 -51
37 -178 54 -297 40z m194 -49 c54 -26 77 -86 72 -187 -6 -124 -45 -173 -129
-165 l-34 3 -3 120 c-2 66 0 148 3 183 6 58 8 62 32 62 14 0 40 -7 59 -16z"/>
<path d="M7345 3906 c-58 -22 -85 -57 -85 -111 0 -38 6 -50 38 -82 21 -21 59
-50 85 -65 59 -34 77 -69 56 -106 -30 -55 -109 -51 -134 6 -10 23 -31 36 -46
26 -5 -3 -9 -25 -9 -49 l0 -44 58 -12 c161 -34 283 73 212 188 -10 18 -48 50
-83 72 -78 50 -98 81 -76 119 11 20 24 28 51 30 37 3 44 -2 87 -53 17 -21 27
-10 35 36 8 44 0 48 -89 55 -39 3 -74 -1 -100 -10z"/>
<path d="M2892 3858 c2 -28 8 -53 15 -55 11 -4 17 1 51 46 14 18 31 25 70 29
77 7 79 12 -70 -253 -31 -55 -60 -112 -63 -127 l-7 -28 161 0 161 0 0 60 c0
41 -4 60 -12 60 -21 0 -34 -13 -52 -47 -16 -32 -19 -33 -76 -33 -58 0 -59 0
-51 24 5 12 44 84 85 159 42 75 83 154 91 177 l14 40 -160 0 -160 0 3 -52z"/>
<path d="M3280 3902 c0 -4 6 -14 13 -20 8 -9 13 -62 16 -171 2 -130 0 -164
-13 -189 -9 -17 -16 -36 -16 -42 0 -6 29 -10 75 -10 41 0 75 2 75 5 0 4 -7 20
-16 37 -14 27 -16 58 -12 195 3 107 9 168 16 175 23 23 11 28 -63 28 -41 0
-75 -4 -75 -8z"/>
<path d="M3526 3883 c20 -41 20 -351 -1 -379 -23 -30 -19 -34 40 -34 56 0 67
8 40 30 -12 10 -15 41 -15 158 0 84 4 142 9 137 5 -6 19 -41 31 -80 39 -121
76 -195 98 -195 29 0 37 14 83 145 23 66 46 124 50 130 5 5 9 -57 9 -142 0
-91 -4 -154 -10 -158 -26 -16 -3 -25 65 -25 58 0 75 3 75 14 0 8 -6 16 -12 18
-10 4 -14 50 -16 177 -3 144 -1 176 12 196 9 14 16 27 16 30 0 3 -31 5 -70 5
-80 0 -79 1 -120 -125 -29 -89 -49 -130 -60 -119 -4 5 -25 62 -46 127 l-38
117 -78 0 -77 0 15 -27z"/>
<path d="M4930 3906 c0 -2 7 -17 15 -32 21 -41 21 -310 0 -361 -8 -19 -15 -37
-15 -39 0 -2 70 -4 155 -4 l155 0 0 56 c0 47 -3 55 -17 52 -10 -2 -23 -14 -30
-28 -15 -30 -35 -38 -90 -39 l-43 -1 0 85 0 85 30 0 c18 0 37 -8 47 -20 31
-36 43 -25 43 40 0 46 -3 60 -15 60 -8 0 -19 -9 -25 -20 -8 -14 -21 -20 -45
-20 l-35 0 0 81 0 82 52 -6 c41 -5 58 -13 80 -37 15 -17 32 -28 38 -25 5 3 10
26 10 51 l0 44 -155 0 c-85 0 -155 -2 -155 -4z"/>
<path d="M5320 3902 c0 -4 5 -13 10 -18 13 -13 9 -370 -4 -397 -8 -16 1 -17
140 -15 l149 3 0 58 c0 31 -4 58 -10 59 -5 0 -19 -17 -31 -38 -20 -38 -22 -39
-78 -42 l-58 -3 4 180 c2 127 7 184 16 193 23 23 12 28 -63 28 -41 0 -75 -4
-75 -8z"/>
<path d="M5690 3901 c0 -6 4 -12 8 -15 5 -3 12 -78 15 -166 5 -131 4 -169 -8
-197 -8 -20 -15 -39 -15 -44 0 -5 34 -9 75 -9 80 0 86 4 59 46 -15 22 -16 48
-11 190 3 100 9 170 16 177 22 22 10 27 -64 27 -41 0 -75 -4 -75 -9z"/>
<path d="M6019 3882 c-41 -21 -58 -38 -77 -75 -49 -93 -25 -251 46 -305 33
-25 43 -27 149 -31 129 -4 120 -10 132 95 4 38 11 77 16 87 6 15 0 17 -69 17
-42 0 -76 -2 -76 -5 0 -2 8 -20 17 -39 22 -46 6 -107 -33 -124 -54 -25 -104
70 -104 200 0 113 42 178 116 178 37 0 45 -4 61 -30 19 -32 47 -40 57 -14 21
54 -7 74 -104 74 -66 0 -86 -4 -131 -28z"/>
<path d="M6364 3892 c14 -16 17 -47 19 -194 2 -155 0 -178 -15 -195 -10 -11
-18 -23 -18 -26 0 -4 36 -7 80 -7 44 0 80 2 80 4 0 2 -7 17 -15 32 -9 18 -15
57 -15 102 l0 72 74 0 74 0 6 -31 c10 -53 6 -92 -14 -136 l-19 -43 79 0 c44 0
80 2 80 3 0 2 -7 18 -16 36 -13 27 -15 61 -13 196 3 114 8 168 17 177 23 23
12 28 -64 28 -69 0 -75 -2 -69 -17 19 -48 24 -82 19 -126 l-7 -48 -71 3 -71 3
-3 58 c-2 38 2 69 12 89 9 17 16 33 16 35 0 1 -37 3 -82 3 -78 0 -80 -1 -64
-18z"/>
<path d="M6830 3883 c0 -16 -3 -38 -7 -51 -5 -21 -3 -23 23 -20 21 2 30 9 32
25 3 17 43 43 68 43 14 0 24 -102 22 -222 -3 -127 -5 -147 -22 -164 -20 -19
-19 -19 22 -22 23 -2 63 -2 89 0 46 3 47 3 27 22 -17 18 -19 37 -22 198 -4
194 -4 195 53 180 19 -6 31 -16 35 -33 4 -17 14 -25 33 -27 28 -3 28 -3 25 45
l-3 48 -187 3 -188 2 0 -27z"/>
</g>
</svg>
